<?xml version="1.0" encoding="UTF-8" standalone="no"?>
<svg
   width="113.39pt"
   height="57.09pt"
   viewBox="0 0 113.39 57.09"
   version="1.1"
   id="svg6"
   sodipodi:docname="poligons-91.pdf"
   xmlns:inkscape="http://www.inkscape.org/namespaces/inkscape"
   xmlns:sodipodi="http://sodipodi.sourceforge.net/DTD/sodipodi-0.dtd"
   xmlns="http://www.w3.org/2000/svg"
   xmlns:svg="http://www.w3.org/2000/svg">
  <sodipodi:namedview
     id="namedview6"
     pagecolor="#ffffff"
     bordercolor="#000000"
     borderopacity="0.25"
     inkscape:showpageshadow="2"
     inkscape:pageopacity="0.0"
     inkscape:pagecheckerboard="0"
     inkscape:deskcolor="#d1d1d1"
     inkscape:document-units="pt" />
  <defs
     id="defs2">
    <clipPath
       id="clip-0">
      <path
         clip-rule="nonzero"
         d="M 42 51 L 48 51 L 48 57.089844 L 42 57.089844 Z M 42 51 "
         id="path1" />
    </clipPath>
    <clipPath
       id="clip-1">
      <path
         clip-rule="nonzero"
         d="M 0 0 L 113.390625 0 L 113.390625 57.089844 L 0 57.089844 Z M 0 0 "
         id="path2" />
    </clipPath>
  </defs>
  <g
     clip-path="url(#clip-0)"
     id="g3">
    <path
       fill="none"
       stroke-width="8"
       stroke-linecap="round"
       stroke-linejoin="round"
       stroke="rgb(0%, 0%, 0%)"
       stroke-opacity="1"
       stroke-miterlimit="10"
       d="M 428.085938 3.985938 L 428.085938 49.025 L 473.125 49.025 "
       transform="matrix(0.1, 0, 0, -0.1, 0, 57.09)"
       id="path3" />
  </g>
  <g
     clip-path="url(#clip-1)"
     id="g4">
    <path
       fill="none"
       stroke-width="8"
       stroke-linecap="round"
       stroke-linejoin="round"
       stroke="rgb(0%, 0%, 0%)"
       stroke-opacity="1"
       stroke-miterlimit="10"
       d="M 3.984375 3.985938 L 473.125 566.915625 L 660.742188 566.915625 L 1129.84375 3.985938 Z M 3.984375 3.985938 "
       transform="matrix(0.1, 0, 0, -0.1, 0, 57.09)"
       id="path4" />
  </g>
  <path
     fill="none"
     stroke-width="5"
     stroke-linecap="round"
     stroke-linejoin="round"
     stroke="rgb(0%, 0%, 0%)"
     stroke-opacity="1"
     stroke-miterlimit="10"
     d="M 473.125 566.915625 L 473.125 3.985938 "
     transform="matrix(0.1, 0, 0, -0.1, 0, 57.09)"
     id="path5" />
  <path
     fill="none"
     stroke-width="8"
     stroke-linecap="round"
     stroke-linejoin="round"
     stroke="rgb(0%, 0%, 0%)"
     stroke-opacity="1"
     stroke-miterlimit="10"
     d="M 238.554688 285.470313 L 895.3125 285.470313 "
     transform="matrix(0.1, 0, 0, -0.1, 0, 57.09)"
     id="path6" />
</svg>
