<?xml version="1.0" encoding="UTF-8" standalone="no"?>
<svg
   width="35.22pt"
   height="113.39pt"
   viewBox="0 0 35.22 113.39"
   version="1.1"
   id="svg11"
   sodipodi:docname="poligons-237.pdf"
   xmlns:inkscape="http://www.inkscape.org/namespaces/inkscape"
   xmlns:sodipodi="http://sodipodi.sourceforge.net/DTD/sodipodi-0.dtd"
   xmlns="http://www.w3.org/2000/svg"
   xmlns:svg="http://www.w3.org/2000/svg">
  <sodipodi:namedview
     id="namedview11"
     pagecolor="#ffffff"
     bordercolor="#000000"
     borderopacity="0.25"
     inkscape:showpageshadow="2"
     inkscape:pageopacity="0.0"
     inkscape:pagecheckerboard="0"
     inkscape:deskcolor="#d1d1d1"
     inkscape:document-units="pt" />
  <defs
     id="defs4">
    <clipPath
       id="clip-0">
      <path
         clip-rule="nonzero"
         d="M 0 0 L 35.21875 0 L 35.21875 113.390625 L 0 113.390625 Z M 0 0 "
         id="path1" />
    </clipPath>
    <clipPath
       id="clip-1">
      <path
         clip-rule="nonzero"
         d="M 17 0 L 19 0 L 19 113.390625 L 17 113.390625 Z M 17 0 "
         id="path2" />
    </clipPath>
    <clipPath
       id="clip-2">
      <path
         clip-rule="nonzero"
         d="M 32 54 L 35.21875 54 L 35.21875 59 L 32 59 Z M 32 54 "
         id="path3" />
    </clipPath>
    <clipPath
       id="clip-3">
      <path
         clip-rule="nonzero"
         d="M 31 53 L 35.21875 53 L 35.21875 61 L 31 61 Z M 31 53 "
         id="path4" />
    </clipPath>
  </defs>
  <g
     clip-path="url(#clip-0)"
     id="g5">
    <path
       fill="none"
       stroke-width="8"
       stroke-linecap="round"
       stroke-linejoin="round"
       stroke="rgb(0%, 0%, 0%)"
       stroke-opacity="1"
       stroke-miterlimit="10"
       d="M 3.984375 566.946875 L 176.09375 1129.876563 L 348.203125 566.946875 L 176.09375 4.017188 Z M 3.984375 566.946875 "
       transform="matrix(0.1, 0, 0, -0.1, 0, 113.39)"
       id="path5" />
  </g>
  <g
     clip-path="url(#clip-1)"
     id="g6">
    <path
       fill="none"
       stroke-width="8"
       stroke-linecap="round"
       stroke-linejoin="round"
       stroke="rgb(0%, 0%, 0%)"
       stroke-opacity="1"
       stroke-miterlimit="10"
       d="M 176.09375 1129.876563 L 176.09375 4.017188 "
       transform="matrix(0.1, 0, 0, -0.1, 0, 113.39)"
       id="path6" />
  </g>
  <path
     fill="none"
     stroke-width="5"
     stroke-linecap="round"
     stroke-linejoin="round"
     stroke="rgb(0%, 0%, 0%)"
     stroke-opacity="1"
     stroke-miterlimit="10"
     d="M 3.984375 566.946875 L 322.382812 482.49375 "
     transform="matrix(0.1, 0, 0, -0.1, 0, 113.39)"
     id="path7" />
  <path
     fill="none"
     stroke-width="5"
     stroke-linecap="round"
     stroke-linejoin="round"
     stroke="rgb(0%, 0%, 0%)"
     stroke-opacity="1"
     stroke-miterlimit="10"
     d="M 176.09375 556.595313 C 159.726562 556.595313 145.9375 545.4625 141.953125 530.345313 L 176.09375 521.282813 Z M 176.09375 556.595313 "
     transform="matrix(0.1, 0, 0, -0.1, 0, 113.39)"
     id="path8" />
  <path
     fill="none"
     stroke-width="5"
     stroke-linecap="round"
     stroke-linejoin="round"
     stroke="rgb(0%, 0%, 0%)"
     stroke-opacity="1"
     stroke-miterlimit="10"
     d="M 332.695312 516.282813 L 298.554688 525.30625 L 288.242188 491.55625 "
     transform="matrix(0.1, 0, 0, -0.1, 0, 113.39)"
     id="path9" />
  <g
     clip-path="url(#clip-2)"
     id="g10">
    <path
       fill="none"
       stroke-width="5"
       stroke-linecap="round"
       stroke-linejoin="round"
       stroke="rgb(0%, 0%, 0%)"
       stroke-opacity="1"
       stroke-miterlimit="10"
       d="M 343.046875 583.821875 C 335.820312 581.595313 330.546875 574.876563 330.546875 566.946875 C 330.546875 558.978125 335.820312 552.259375 343.046875 550.032813 L 348.203125 566.946875 Z M 343.046875 583.821875 "
       transform="matrix(0.1, 0, 0, -0.1, 0, 113.39)"
       id="path10" />
  </g>
  <g
     clip-path="url(#clip-3)"
     id="g11">
    <path
       fill="none"
       stroke-width="5"
       stroke-linecap="round"
       stroke-linejoin="round"
       stroke="rgb(0%, 0%, 0%)"
       stroke-opacity="1"
       stroke-miterlimit="10"
       d="M 337.851562 600.696875 C 323.398438 596.282813 312.890625 582.845313 312.890625 566.946875 C 312.890625 551.009375 323.398438 537.571875 337.851562 533.157813 L 348.203125 566.946875 Z M 337.851562 600.696875 "
       transform="matrix(0.1, 0, 0, -0.1, 0, 113.39)"
       id="path11" />
  </g>
</svg>
